<svg xmlns="http://www.w3.org/2000/svg" viewBox="0 0 210.17 58.63"><defs><style>.cls-1{fill:#3a7aba;}.cls-2{fill:none;}</style></defs><title>Ativo 135</title><g id="Camada_2" data-name="Camada 2"><g id="Camada_1-2" data-name="Camada 1"><path class="cls-1" d="M36.21,41.35H29.29a12.06,12.06,0,0,1,0-24.12h6.92a1.69,1.69,0,0,1,1.69,1.69V24.2a1.69,1.69,0,1,1-3.38,0V20.61H29.29a8.68,8.68,0,1,0,0,17.36h6.92a1.69,1.69,0,1,1,0,3.38Z"/><path class="cls-1" d="M77.52,41.36H70.6a1.69,1.69,0,0,1-1.69-1.69V34.46a1.69,1.69,0,0,1,3.38,0V38h5.23a8.68,8.68,0,1,0,0-17.36H70.6a1.69,1.69,0,0,1,0-3.38h6.92a12.06,12.06,0,1,1,0,24.12Z"/><path class="cls-1" d="M170.55,41.36h-6.92a1.69,1.69,0,0,1-1.69-1.69V34.46a1.69,1.69,0,1,1,3.38,0V38h5.23a8.68,8.68,0,1,0,0-17.36h-6.92a1.69,1.69,0,0,1,0-3.38h6.92a12.06,12.06,0,0,1,0,24.12Z"/><path class="cls-1" d="M53.41,41.36A12.06,12.06,0,1,1,65.46,29.3,12.07,12.07,0,0,1,53.41,41.36Zm0-20.74a8.68,8.68,0,1,0,8.68,8.68A8.69,8.69,0,0,0,53.41,20.62Z"/><path class="cls-1" d="M110.26,39.67a1.69,1.69,0,0,1-1.7,1.69H94.71A1.69,1.69,0,0,1,93,39.67V29.3a1.69,1.69,0,0,1,1.69-1.7h10.4a1.69,1.69,0,1,1,0,3.38H96.41v7h12.15A1.69,1.69,0,0,1,110.26,39.67Z"/><path class="cls-1" d="M108.56,20.62H94.72a1.69,1.69,0,0,1,0-3.38h13.85a1.69,1.69,0,0,1,0,3.38Z"/><path class="cls-1" d="M158.49,39.67a1.69,1.69,0,0,1-1.7,1.69H142.95a1.69,1.69,0,0,1-1.69-1.69V29.3a1.69,1.69,0,0,1,1.69-1.7h10.4a1.69,1.69,0,1,1,0,3.38h-8.71v7H156.8A1.69,1.69,0,0,1,158.49,39.67Z"/><path class="cls-1" d="M156.8,20.62H143a1.69,1.69,0,0,1,0-3.38H156.8a1.69,1.69,0,0,1,0,3.38Z"/><path class="cls-1" d="M136.1,41.38a1.72,1.72,0,0,1-1.72-1.72V23l-7.44,7.61a1.72,1.72,0,0,1-2.36,0L114.24,20.22a1.72,1.72,0,1,1,2.36-2.51l9.16,9.24,9.16-9.23a1.72,1.72,0,0,1,2.9,1.26V39.66A1.72,1.72,0,0,1,136.1,41.38Z"/><path class="cls-1" d="M115.42,41.38a1.72,1.72,0,0,1-1.72-1.72V29.33a1.72,1.72,0,1,1,3.45,0V39.66A1.72,1.72,0,0,1,115.42,41.38Z"/><path class="cls-1" d="M193.65,14.65a.86.86,0,0,1-.87.86h-.85v4.32a.86.86,0,0,1-1.73,0V15.51h-.85a.86.86,0,1,1,0-1.72h3.43A.86.86,0,0,1,193.65,14.65Z"/><path class="cls-1" d="M196.68,14.65v5.18a.86.86,0,1,1-1.73,0V14.65a.86.86,0,0,1,1.73,0Z"/><path class="cls-1" d="M192.95,25.84a8.61,8.61,0,1,1,8.61-8.61A8.62,8.62,0,0,1,192.95,25.84Zm0-15.5a6.89,6.89,0,1,0,6.89,6.89A6.9,6.9,0,0,0,192.95,10.34Z"/><rect class="cls-2" width="210.17" height="58.63"/></g></g></svg>